{
  "source": "C:\\Users\\mbnyau\\Desktop\\stuff\\MIUN\\quantitative_research\\video_compression\\videos\\UVG\\Jockey_1920x1080_120fps_420_8bit_YUV.y4m",
  "output": "C:\\Users\\mbnyau\\Desktop\\stuff\\MIUN\\quantitative_research\\video_compression\\compressed_videos\\UVG\\vp9\\2\\Jockey_1920x1080_120fps_420_8bit_YUV_vp9.webm",
  "codec": "vp9",
  "ok": "[yuv4mpegpipe @ 000002062cd45700] Stream #0: not enough frames to estimate rate; consider increasing probesize\nInput #0, yuv4mpegpipe, from 'C:\\Users\\mbnyau\\Desktop\\stuff\\MIUN\\quantitative_research\\video_compression\\videos\\UVG\\Jockey_1920x1080_120fps_420_8bit_YUV.y4m':\n  Duration: 00:00:05.00, start: 0.000000, bitrate: 2985989 kb/s\n  Stream #0:0: Video: rawvideo (I420 / 0x30323449), yuv420p(progressive), 1920x1080, 120 fps, 120 tbr, 120 tbn\n[out#0/webm @ 000002062cd46d80] Codec AVOption b:a (set bitrate (in bits/s)) has not been used for any stream. The most likely reason is either wrong type (e.g. a video option with no video streams) or that it is a private option of some decoder which was not actually used for any stream.\nStream mapping:\n  Stream #0:0 -> #0:0 (rawvideo (native) -> vp9 (libvpx-vp9))\nPress [q] to stop, [?] for help\n[libvpx-vp9 @ 000002062cd4cc40] v1.15.2-100-g40561f514\nOutput #0, webm, to 'C:\\Users\\mbnyau\\Desktop\\stuff\\MIUN\\quantitative_research\\video_compression\\compressed_videos\\UVG\\vp9\\2\\Jockey_1920x1080_120fps_420_8bit_YUV_vp9.webm':\n  Metadata:\n    encoder         : Lavf62.3.100\n  Stream #0:0: Video: vp9, yuv420p(tv, progressive), 1920x1080, q=2-31, 2000 kb/s, 120 fps, 1k tbn\n    Metadata:\n      encoder         : Lavc62.11.100 libvpx-vp9\n    Side data:\n      cpb: bitrate max/min/avg: 0/0/0 buffer size: 2000000 vbv_delay: N/A\nframe=   11 fps=0.0 q=53.0 size=       0KiB time=00:00:00.09 bitrate=  42.0kbits/s speed=0.179x elapsed=0:00:00.51    \nframe=   23 fps= 22 q=51.0 size=       0KiB time=00:00:00.19 bitrate=  20.1kbits/s speed=0.187x elapsed=0:00:01.02    \nframe=   33 fps= 21 q=52.0 size=       0KiB time=00:00:00.27 bitrate=  14.0kbits/s speed=0.178x elapsed=0:00:01.54    \nframe=   45 fps= 22 q=52.0 size=       0KiB time=00:00:00.37 bitrate=  10.3kbits/s speed=0.182x elapsed=0:00:02.05    \nframe=   55 fps= 21 q=52.0 size=       0KiB time=00:00:00.45 bitrate=   8.4kbits/s speed=0.178x elapsed=0:00:02.57    \nframe=   66 fps= 21 q=53.0 size=       0KiB time=00:00:00.55 bitrate=   7.0kbits/s speed=0.178x elapsed=0:00:03.09    \nframe=   76 fps= 21 q=52.0 size=       0KiB time=00:00:00.63 bitrate=   6.1kbits/s speed=0.176x elapsed=0:00:03.60    \nframe=   87 fps= 21 q=53.0 size=       0KiB time=00:00:00.72 bitrate=   5.3kbits/s speed=0.176x elapsed=0:00:04.12    \nframe=  100 fps= 22 q=54.0 size=       0KiB time=00:00:00.83 bitrate=   4.6kbits/s speed=0.179x elapsed=0:00:04.64    \nframe=  110 fps= 21 q=55.0 size=       0KiB time=00:00:00.91 bitrate=   4.2kbits/s speed=0.178x elapsed=0:00:05.16    \nframe=  122 fps= 21 q=55.0 size=       0KiB time=00:00:01.01 bitrate=   3.8kbits/s speed=0.179x elapsed=0:00:05.68    \nframe=  133 fps= 21 q=55.0 size=     243KiB time=00:00:01.10 bitrate=1794.7kbits/s speed=0.179x elapsed=0:00:06.20    \nframe=  143 fps= 21 q=42.0 size=     243KiB time=00:00:01.19 bitrate=1669.2kbits/s speed=0.177x elapsed=0:00:06.71    \nframe=  154 fps= 21 q=56.0 size=     243KiB time=00:00:01.28 bitrate=1550.0kbits/s speed=0.177x elapsed=0:00:07.23    \nframe=  165 fps= 21 q=57.0 size=     243KiB time=00:00:01.37 bitrate=1446.7kbits/s speed=0.177x elapsed=0:00:07.74    \nframe=  175 fps= 21 q=58.0 size=     243KiB time=00:00:01.45 bitrate=1364.0kbits/s speed=0.176x elapsed=0:00:08.26    \nframe=  185 fps= 21 q=43.0 size=     243KiB time=00:00:01.54 bitrate=1290.3kbits/s speed=0.176x elapsed=0:00:08.78    \nframe=  195 fps= 21 q=57.0 size=     243KiB time=00:00:01.62 bitrate=1224.1kbits/s speed=0.175x elapsed=0:00:09.29    \nframe=  205 fps= 21 q=56.0 size=     243KiB time=00:00:01.70 bitrate=1164.4kbits/s speed=0.174x elapsed=0:00:09.81    \nframe=  214 fps= 21 q=44.0 size=     243KiB time=00:00:01.78 bitrate=1115.4kbits/s speed=0.173x elapsed=0:00:10.32    \nframe=  224 fps= 21 q=57.0 size=     243KiB time=00:00:01.86 bitrate=1065.6kbits/s speed=0.172x elapsed=0:00:10.84    \nframe=  234 fps= 21 q=58.0 size=     243KiB time=00:00:01.95 bitrate=1020.1kbits/s speed=0.172x elapsed=0:00:11.36    \nframe=  242 fps= 20 q=44.0 size=     243KiB time=00:00:02.01 bitrate= 986.4kbits/s speed=0.17x elapsed=0:00:11.88    \nframe=  252 fps= 20 q=57.0 size=     243KiB time=00:00:02.10 bitrate= 947.2kbits/s speed=0.169x elapsed=0:00:12.39    \nframe=  262 fps= 20 q=58.0 size=     512KiB time=00:00:02.18 bitrate=1921.1kbits/s speed=0.169x elapsed=0:00:12.91    \nframe=  272 fps= 20 q=57.0 size=     512KiB time=00:00:02.26 bitrate=1850.4kbits/s speed=0.169x elapsed=0:00:13.42    \nframe=  282 fps= 20 q=58.0 size=     512KiB time=00:00:02.35 bitrate=1784.8kbits/s speed=0.168x elapsed=0:00:13.94    \nframe=  291 fps= 20 q=62.0 size=     512KiB time=00:00:02.42 bitrate=1729.6kbits/s speed=0.168x elapsed=0:00:14.46    \nframe=  301 fps= 20 q=62.0 size=     512KiB time=00:00:02.50 bitrate=1672.1kbits/s speed=0.167x elapsed=0:00:14.97    \nframe=  311 fps= 20 q=63.0 size=     512KiB time=00:00:02.59 bitrate=1618.4kbits/s speed=0.167x elapsed=0:00:15.49    \nframe=  319 fps= 20 q=63.0 size=     512KiB time=00:00:02.65 bitrate=1577.8kbits/s speed=0.166x elapsed=0:00:16.01    \nframe=  328 fps= 20 q=62.0 size=     512KiB time=00:00:02.73 bitrate=1534.5kbits/s speed=0.165x elapsed=0:00:16.52    \nframe=  338 fps= 20 q=60.0 size=     512KiB time=00:00:02.81 bitrate=1489.1kbits/s speed=0.165x elapsed=0:00:17.04    \nframe=  348 fps= 20 q=62.0 size=     512KiB time=00:00:02.90 bitrate=1446.3kbits/s speed=0.165x elapsed=0:00:17.56    \nframe=  359 fps= 20 q=58.0 size=     512KiB time=00:00:02.99 bitrate=1402.0kbits/s speed=0.165x elapsed=0:00:18.07    \nframe=  370 fps= 20 q=57.0 size=     512KiB time=00:00:03.08 bitrate=1360.3kbits/s speed=0.166x elapsed=0:00:18.58    \nframe=  383 fps= 20 q=59.0 size=     512KiB time=00:00:03.19 bitrate=1314.1kbits/s speed=0.167x elapsed=0:00:19.09    \nframe=  394 fps= 20 q=55.0 size=     768KiB time=00:00:03.28 bitrate=1916.2kbits/s speed=0.167x elapsed=0:00:19.61    \nframe=  405 fps= 20 q=53.0 size=     768KiB time=00:00:03.37 bitrate=1864.1kbits/s speed=0.168x elapsed=0:00:20.13    \nframe=  418 fps= 20 q=49.0 size=     768KiB time=00:00:03.48 bitrate=1806.2kbits/s speed=0.169x elapsed=0:00:20.65    \nframe=  429 fps= 20 q=48.0 size=     768KiB time=00:00:03.57 bitrate=1759.8kbits/s speed=0.169x elapsed=0:00:21.17    \nframe=  440 fps= 20 q=51.0 size=     768KiB time=00:00:03.66 bitrate=1715.9kbits/s speed=0.169x elapsed=0:00:21.68    \nframe=  451 fps= 20 q=53.0 size=     768KiB time=00:00:03.75 bitrate=1674.0kbits/s speed=0.169x elapsed=0:00:22.20    \nframe=  461 fps= 20 q=52.0 size=     768KiB time=00:00:03.84 bitrate=1637.7kbits/s speed=0.169x elapsed=0:00:22.73    \nframe=  474 fps= 20 q=47.0 size=     768KiB time=00:00:03.95 bitrate=1592.8kbits/s speed=0.17x elapsed=0:00:23.25    \nframe=  485 fps= 20 q=46.0 size=     768KiB time=00:00:04.04 bitrate=1556.6kbits/s speed=0.17x elapsed=0:00:23.75    \nframe=  496 fps= 20 q=48.0 size=     768KiB time=00:00:04.13 bitrate=1522.1kbits/s speed=0.17x elapsed=0:00:24.27    \nframe=  506 fps= 20 q=50.0 size=     768KiB time=00:00:04.21 bitrate=1492.0kbits/s speed=0.17x elapsed=0:00:24.79    \nframe=  517 fps= 20 q=52.0 size=    1024KiB time=00:00:04.30 bitrate=1947.1kbits/s speed=0.17x elapsed=0:00:25.31    \nframe=  527 fps= 20 q=37.0 size=    1024KiB time=00:00:04.39 bitrate=1910.1kbits/s speed=0.17x elapsed=0:00:25.81    \nframe=  539 fps= 20 q=50.0 size=    1024KiB time=00:00:04.49 bitrate=1867.6kbits/s speed=0.171x elapsed=0:00:26.33    \nframe=  549 fps= 20 q=51.0 size=    1024KiB time=00:00:04.57 bitrate=1833.6kbits/s speed=0.17x elapsed=0:00:26.85    \nframe=  559 fps= 20 q=52.0 size=    1024KiB time=00:00:04.65 bitrate=1800.8kbits/s speed=0.17x elapsed=0:00:27.37    \nframe=  568 fps= 20 q=52.0 size=    1024KiB time=00:00:04.73 bitrate=1772.2kbits/s speed=0.17x elapsed=0:00:27.88    \nframe=  576 fps= 20 q=39.0 size=    1024KiB time=00:00:04.80 bitrate=1747.6kbits/s speed=0.169x elapsed=0:00:28.40    \nframe=  576 fps= 20 q=39.0 size=    1024KiB time=00:00:04.80 bitrate=1747.6kbits/s speed=0.166x elapsed=0:00:28.92    \nframe=  576 fps= 20 q=39.0 size=    1024KiB time=00:00:04.80 bitrate=1747.6kbits/s speed=0.163x elapsed=0:00:29.43    \n[out#0/webm @ 000002062cd46d80] video:1225KiB audio:0KiB subtitle:0KiB other streams:0KiB global headers:0KiB muxing overhead: 0.385477%\nframe=  600 fps= 20 q=56.0 Lsize=    1230KiB time=00:00:05.00 bitrate=2014.6kbits/s speed=0.169x elapsed=0:00:29.51    \n",
  "seconds": 29.576082229614258,
  "probe_out": {}
}